<?xml version="1.0" encoding="utf-8"?>
<!-- Generator: Adobe Illustrator 26.0.2, SVG Export Plug-In . SVG Version: 6.00 Build 0)  -->
<svg version="1.1" id="Layer_1" xmlns="http://www.w3.org/2000/svg" xmlns:xlink="http://www.w3.org/1999/xlink" x="0px" y="0px"
	 viewBox="0 0 12.7 8.1" style="enable-background:new 0 0 12.7 8.1;" xml:space="preserve">
<style type="text/css">
	.st0{clip-path:url(#SVGID_00000024703917597332179640000008331689966807066771_);}
	.st1{fill-rule:evenodd;clip-rule:evenodd;}
</style>
<g>
	<defs>
		<rect id="SVGID_1_" y="0.5" width="12.7" height="7.6"/>
	</defs>
	<clipPath id="SVGID_00000146500580365776394190000011480691799507867298_">
		<use xlink:href="#SVGID_1_"  style="overflow:visible;"/>
	</clipPath>
	<g id="arrow_down" style="clip-path:url(#SVGID_00000146500580365776394190000011480691799507867298_);">
		<path id="Path_2191" class="st1" d="M1.4,1.6c0.2-0.2,0.6-0.2,0.8,0c0,0,0,0,0,0l4.1,4.1l4.1-4.1c0.2-0.2,0.6-0.2,0.8,0
			c0.2,0.2,0.2,0.6,0,0.8L6.7,6.9c-0.2,0.2-0.6,0.2-0.8,0c0,0,0,0,0,0L1.4,2.4C1.2,2.2,1.2,1.9,1.4,1.6C1.4,1.6,1.4,1.6,1.4,1.6
			L1.4,1.6z"/>
	</g>
</g>
</svg>
