<svg id="Layer_1" data-name="Layer 1" xmlns="http://www.w3.org/2000/svg" xmlns:xlink="http://www.w3.org/1999/xlink" viewBox="0 0 115.49 94.49"><defs><style>.cls-1,.cls-4,.cls-6,.cls-7,.cls-8{fill:none;}.cls-2{clip-path:url(#clip-path);}.cls-3{clip-path:url(#clip-path-2);}.cls-4,.cls-6,.cls-7,.cls-8,.cls-9{stroke:#f7cc46;}.cls-4{stroke-miterlimit:10;}.cls-4,.cls-6,.cls-8{stroke-width:2px;}.cls-5{clip-path:url(#clip-path-3);}.cls-6,.cls-7,.cls-8{stroke-linejoin:round;}.cls-7,.cls-8{stroke-linecap:round;}.cls-7{stroke-dasharray:0.99 2.97;}.cls-9{fill:#f7cc46;}</style><clipPath id="clip-path"><rect class="cls-1" x="-109.24" y="5.74" width="84" height="83"/></clipPath><clipPath id="clip-path-2"><rect class="cls-1" x="-103.59" y="-1.44" width="124.31" height="83.05"/></clipPath><clipPath id="clip-path-3"><rect class="cls-1" x="9" y="6.19" width="97.48" height="82.1"/></clipPath></defs><g class="cls-2"><g id="Mask_Group_7594" data-name="Mask Group 7594"><g id="Group_8679" data-name="Group 8679"><g id="Group_8678" data-name="Group 8678"><g class="cls-3"><g id="Group_8677" data-name="Group 8677"><path id="Path_2431" data-name="Path 2431" class="cls-4" d="M19.29,43.9H8.4v-33A10.89,10.89,0,0,1,19.29,0h0V80.18H13.15V48.68"/><path id="Path_2432" data-name="Path 2432" class="cls-4" d="M-20.55.35V30.59a11.48,11.48,0,0,0,2.63,7.31l4.49,5.41V80.18h5.72V43.31l4.49-5.41A11.48,11.48,0,0,0-.59,30.59V.35"/></g></g></g></g></g></g><g id="Group_8671" data-name="Group 8671"><g class="cls-5"><g id="Group_8613" data-name="Group 8613"><circle id="Ellipse_50" data-name="Ellipse 50" class="cls-6" cx="57.65" cy="51.61" r="30.69"/><circle id="Ellipse_51" data-name="Ellipse 51" class="cls-7" cx="57.65" cy="51.61" r="23.96"/><line id="Line_245" data-name="Line 245" class="cls-8" x1="41.27" y1="77.96" x2="37.09" y2="87.3"/><line id="Line_246" data-name="Line 246" class="cls-8" x1="74.02" y1="77.96" x2="78.21" y2="87.3"/><path id="Path_2370" data-name="Path 2370" class="cls-9" d="M54.39,61.34v-.05a3,3,0,0,1,2.89-3,2.17,2.17,0,0,1,.36,0A3,3,0,0,1,60.89,61a3,3,0,0,1,0,.31v0a3,3,0,0,1-3,3l-.31,0a2.94,2.94,0,0,1-3.23-2.64,2,2,0,0,1,0-.35m.06-22.66v-.31h6.37v.31L59.48,56.34H55.79Z"/><path id="Path_2371" data-name="Path 2371" class="cls-6" d="M26,37.26A10.31,10.31,0,0,1,39.61,21.73h0A30.83,30.83,0,0,0,26,37.26Z"/><line id="Line_247" data-name="Line 247" class="cls-6" x1="34.36" y1="30.92" x2="30.86" y2="27.91"/><path id="Path_2372" data-name="Path 2372" class="cls-4" d="M25.79,13.29a12.37,12.37,0,0,0-9,15"/><path id="Path_2373" data-name="Path 2373" class="cls-4" d="M24.08,7.16a18.56,18.56,0,0,0-13.52,22.5"/><path id="Path_2374" data-name="Path 2374" class="cls-6" d="M89.45,37.26A10.31,10.31,0,0,0,75.88,21.73h0A30.83,30.83,0,0,1,89.45,37.26Z"/><line id="Line_248" data-name="Line 248" class="cls-6" x1="81.13" y1="30.92" x2="84.62" y2="27.91"/><path id="Path_2375" data-name="Path 2375" class="cls-4" d="M89.7,13.29a12.38,12.38,0,0,1,9,15"/><path id="Path_2376" data-name="Path 2376" class="cls-4" d="M91.41,7.16a18.56,18.56,0,0,1,13.52,22.5"/><rect id="Rectangle_1971" data-name="Rectangle 1971" class="cls-6" x="50.33" y="10.44" width="13.97" height="5.99"/><line id="Line_249" data-name="Line 249" class="cls-6" x1="57.31" y1="16.43" x2="57.31" y2="20.42"/></g></g></g></svg>