<?xml version="1.0" encoding="utf-8"?>
<!-- Generator: Adobe Illustrator 27.1.1, SVG Export Plug-In . SVG Version: 6.00 Build 0)  -->
<svg version="1.1" id="Layer_1" xmlns="http://www.w3.org/2000/svg" xmlns:xlink="http://www.w3.org/1999/xlink" x="0px" y="0px"
	 viewBox="0 0 95 93.1" style="enable-background:new 0 0 95 93.1;" xml:space="preserve">
<style type="text/css">
	.st0{fill:#D65642;}
	.st1{fill:#FFFFFF;}
</style>
<g>
	<path class="st0" d="M47.5,91.3c-24.7,0-44.8-20.1-44.8-44.8S22.8,1.8,47.5,1.8s44.8,20.1,44.8,44.8C92.2,71.2,72.2,91.3,47.5,91.3
		z"/>
	<path class="st1" d="M47.5,4.8c-23,0-41.8,18.7-41.8,41.8c0,23,18.7,41.8,41.8,41.8c23,0,41.8-18.7,41.8-41.8
		C89.2,23.5,70.5,4.8,47.5,4.8z"/>
</g>
<path class="st0" d="M63.1,43.2c0,0.2-0.2,0.4-0.4,0.4h-0.5c-0.2,0-0.4-0.2-0.4-0.4s0.2-0.4,0.4-0.4h0.5
	C62.9,42.8,63.1,43,63.1,43.2z M66.7,24.9h-0.5c-0.2,0-0.4,0.2-0.4,0.4s0.2,0.4,0.4,0.4h0.5c0.2,0,0.4-0.2,0.4-0.4
	S66.9,24.9,66.7,24.9z M58.7,24.9h-0.2c-0.2,0-0.4,0.2-0.4,0.4v0.2c0,0.2,0.2,0.4,0.4,0.4s0.3-0.1,0.4-0.3c0.2-0.1,0.3-0.2,0.3-0.4
	C59.1,25.1,58.9,24.9,58.7,24.9z M60.7,42.8h-0.5c-0.2,0-0.4,0.2-0.4,0.4s0.2,0.4,0.4,0.4h0.5c0.2,0,0.4-0.2,0.4-0.4
	C61.1,43,60.9,42.8,60.7,42.8z M64.7,42.8h-0.5c-0.2,0-0.4,0.2-0.4,0.4s0.2,0.4,0.4,0.4h0.5c0.2,0,0.4-0.2,0.4-0.4
	S64.9,42.8,64.7,42.8z M66.7,42.8h-0.5c-0.2,0-0.4,0.2-0.4,0.4s0.2,0.4,0.4,0.4h0.5c0.2,0,0.4-0.2,0.4-0.4S66.9,42.8,66.7,42.8z
	 M62.7,24.9h-0.5c-0.2,0-0.4,0.2-0.4,0.4s0.2,0.4,0.4,0.4h0.5c0.2,0,0.4-0.2,0.4-0.4S62.9,24.9,62.7,24.9z M64.7,24.9h-0.5
	c-0.2,0-0.4,0.2-0.4,0.4s0.2,0.4,0.4,0.4h0.5c0.2,0,0.4-0.2,0.4-0.4S64.9,24.9,64.7,24.9z M60.7,24.9h-0.5c-0.2,0-0.4,0.2-0.4,0.4
	s0.2,0.4,0.4,0.4h0.5c0.2,0,0.4-0.2,0.4-0.4S60.9,24.9,60.7,24.9z M58.5,32c0.2,0,0.4-0.2,0.4-0.4v-0.5c0-0.2-0.2-0.4-0.4-0.4
	s-0.4,0.2-0.4,0.4v0.5C58.1,31.8,58.2,32,58.5,32z M58.5,30c0.2,0,0.4-0.2,0.4-0.4v-0.5c0-0.2-0.2-0.4-0.4-0.4s-0.4,0.2-0.4,0.4v0.5
	C58.1,29.8,58.2,30,58.5,30z M58.5,34c0.2,0,0.4-0.2,0.4-0.4V33c0-0.2-0.2-0.4-0.4-0.4s-0.4,0.2-0.4,0.4v0.5
	C58.1,33.8,58.2,34,58.5,34z M58.5,28c0.2,0,0.4-0.2,0.4-0.4v-0.5c0-0.2-0.2-0.4-0.4-0.4s-0.4,0.2-0.4,0.4v0.5
	C58.1,27.8,58.2,28,58.5,28z M58.8,42.8c-0.1-0.2-0.2-0.3-0.4-0.3S58,42.7,58,42.9v0.2c0,0.2,0.2,0.4,0.4,0.4h0.2
	c0.2,0,0.4-0.2,0.4-0.4C59.1,43.1,59,42.9,58.8,42.8z M58.5,35.9c0.2,0,0.4-0.2,0.4-0.4V35c0-0.2-0.2-0.4-0.4-0.4s-0.4,0.2-0.4,0.4
	v0.5C58.1,35.8,58.2,35.9,58.5,35.9z M58.5,39.9c0.2,0,0.4-0.2,0.4-0.4V39c0-0.2-0.2-0.4-0.4-0.4s-0.4,0.2-0.4,0.4v0.5
	C58.1,39.7,58.2,39.9,58.5,39.9z M58.5,41.9c0.2,0,0.4-0.2,0.4-0.4V41c0-0.2-0.2-0.4-0.4-0.4s-0.4,0.2-0.4,0.4v0.5
	C58.1,41.7,58.2,41.9,58.5,41.9z M58.5,37.9c0.2,0,0.4-0.2,0.4-0.4V37c0-0.2-0.2-0.4-0.4-0.4s-0.4,0.2-0.4,0.4v0.5
	C58.1,37.7,58.2,37.9,58.5,37.9z M76.4,42.6c-0.2,0-0.3,0.1-0.4,0.3c-0.2,0.1-0.3,0.2-0.3,0.4s0.2,0.4,0.4,0.4h0.2
	c0.2,0,0.4-0.2,0.4-0.4V43C76.8,42.8,76.6,42.6,76.4,42.6z M76.4,30.6c-0.2,0-0.4,0.2-0.4,0.4v0.5c0,0.2,0.2,0.4,0.4,0.4
	s0.4-0.2,0.4-0.4V31C76.8,30.8,76.6,30.6,76.4,30.6z M76.4,34.6c-0.2,0-0.4,0.2-0.4,0.4v0.5c0,0.2,0.2,0.4,0.4,0.4s0.4-0.2,0.4-0.4
	V35C76.8,34.8,76.6,34.6,76.4,34.6z M76.4,38.6c-0.2,0-0.4,0.2-0.4,0.4v0.5c0,0.2,0.2,0.4,0.4,0.4s0.4-0.2,0.4-0.4V39
	C76.8,38.8,76.6,38.6,76.4,38.6z M76.4,36.6c-0.2,0-0.4,0.2-0.4,0.4v0.5c0,0.2,0.2,0.4,0.4,0.4s0.4-0.2,0.4-0.4V37
	C76.8,36.8,76.6,36.6,76.4,36.6z M76.4,32.6c-0.2,0-0.4,0.2-0.4,0.4v0.5c0,0.2,0.2,0.4,0.4,0.4s0.4-0.2,0.4-0.4V33
	C76.8,32.8,76.6,32.6,76.4,32.6z M76.4,28.7c-0.2,0-0.4,0.2-0.4,0.4v0.5c0,0.2,0.2,0.4,0.4,0.4s0.4-0.2,0.4-0.4v-0.5
	C76.8,28.8,76.6,28.7,76.4,28.7z M76.4,24.9h-0.2c-0.2,0-0.4,0.2-0.4,0.4c0,0.2,0.1,0.3,0.3,0.4c0.1,0.2,0.2,0.3,0.4,0.3
	c0.2,0,0.4-0.2,0.4-0.4v-0.2C76.8,25.1,76.6,24.9,76.4,24.9z M76.4,26.7c-0.2,0-0.4,0.2-0.4,0.4v0.5c0,0.2,0.2,0.4,0.4,0.4
	s0.4-0.2,0.4-0.4v-0.5C76.8,26.9,76.6,26.7,76.4,26.7z M70.6,42.8h-0.5c-0.2,0-0.4,0.2-0.4,0.4s0.2,0.4,0.4,0.4h0.5
	c0.2,0,0.4-0.2,0.4-0.4C71.1,43,70.9,42.8,70.6,42.8z M68.7,42.8h-0.5c-0.2,0-0.4,0.2-0.4,0.4s0.2,0.4,0.4,0.4h0.5
	c0.2,0,0.4-0.2,0.4-0.4S68.9,42.8,68.7,42.8z M70.6,24.9h-0.5c-0.2,0-0.4,0.2-0.4,0.4s0.2,0.4,0.4,0.4h0.5c0.2,0,0.4-0.2,0.4-0.4
	S70.9,24.9,70.6,24.9z M68.7,24.9h-0.5c-0.2,0-0.4,0.2-0.4,0.4s0.2,0.4,0.4,0.4h0.5c0.2,0,0.4-0.2,0.4-0.4S68.9,24.9,68.7,24.9z
	 M72.6,42.8h-0.5c-0.2,0-0.4,0.2-0.4,0.4s0.2,0.4,0.4,0.4h0.5c0.2,0,0.4-0.2,0.4-0.4S72.9,42.8,72.6,42.8z M72.6,24.9h-0.5
	c-0.2,0-0.4,0.2-0.4,0.4s0.2,0.4,0.4,0.4h0.5c0.2,0,0.4-0.2,0.4-0.4S72.9,24.9,72.6,24.9z M74.6,24.9h-0.5c-0.2,0-0.4,0.2-0.4,0.4
	s0.2,0.4,0.4,0.4h0.5c0.2,0,0.4-0.2,0.4-0.4S74.8,24.9,74.6,24.9z M74.6,42.8h-0.5c-0.2,0-0.4,0.2-0.4,0.4s0.2,0.4,0.4,0.4h0.5
	c0.2,0,0.4-0.2,0.4-0.4S74.8,42.8,74.6,42.8z M76.4,40.6c-0.2,0-0.4,0.2-0.4,0.4v0.5c0,0.2,0.2,0.4,0.4,0.4s0.4-0.2,0.4-0.4V41
	C76.8,40.8,76.6,40.6,76.4,40.6z M49.2,43.6c-2.5,0-4.6,2.1-4.6,4.6s2.1,4.6,4.6,4.6s4.6-2.1,4.6-4.6C53.9,45.6,51.8,43.6,49.2,43.6
	z M49.2,51.2c-1.7,0-3-1.3-3-3s1.3-3,3-3s3,1.3,3,3C52.3,49.8,50.9,51.2,49.2,51.2z M49.2,40.7c-6,0-10.9,4.9-10.9,10.9
	s4.9,10.9,10.9,10.9s10.9-4.9,10.9-10.9C60.1,45.6,55.2,40.7,49.2,40.7z M43.7,59l1.5,0.2l0.3-2.6c0.1-1,0.9-1.8,2-1.8H51
	c1,0,1.9,0.8,2,1.9l0.3,2.5l1.5-0.2c-1.5,1.2-3.5,1.8-5.5,1.8C47.2,60.8,45.2,60.1,43.7,59z M54.9,58.9l-0.3-2.4
	c-0.1-1.9-1.7-3.3-3.6-3.3h-3.5c-1.9,0-3.4,1.5-3.6,3.3l-0.3,2.4c-2.2-1.7-3.6-4.4-3.6-7.3c0-5.1,4.2-9.3,9.3-9.3s9.3,4.2,9.3,9.3
	C58.5,54.6,57.1,57.2,54.9,58.9z M37,22.5h-7.7V24H37V22.5z M29.4,60.5h1.3v-1.6h-1.3V60.5z M31.9,60.5h5.8v-1.6h-5.8
	C31.9,58.9,31.9,60.5,31.9,60.5z M29.4,63.1h1.3v-1.6h-1.3V63.1z M31.9,63.1h5.8v-1.6h-5.8C31.9,61.5,31.9,63.1,31.9,63.1z
	 M29.4,65.6h1.3V64h-1.3V65.6z M31.9,65.6h5.8V64h-5.8C31.9,64,31.9,65.6,31.9,65.6z M32.5,27.2h12.8v-1.6H32.5V27.2z M20.4,43.2H30
	v-1.6h-9.6V43.2z M20.4,40h14.1v-1.6H20.4V40z M73.9,56.4V33.9c0-2.9-2.4-5.3-5.3-5.3H29.9c-2.9,0-5.3,2.4-5.3,5.3v1.2h-7.9v12.3
	h7.9v17.9c0,2.9,2.4,5.3,5.3,5.3h38.8c2.9,0,5.3-2.4,5.3-5.3v-5.1l4.4-1.4L73.9,56.4z M26.2,33.9c0-2,1.7-3.7,3.7-3.7h38.8
	c2,0,3.7,1.7,3.7,3.7V35H26.2V33.9z M18.3,45.8v-9.1h18.2v9.1C36.5,45.8,18.3,45.8,18.3,45.8z M72.3,65.3c0,2-1.7,3.7-3.7,3.7H29.9
	c-2,0-3.7-1.7-3.7-3.7V47.4h12V36.7h34.2v18.9l-8.5-4.5l2.8,16.1l4.5-6.1l1.2-0.4L72.3,65.3L72.3,65.3z M70.1,59.7l-2.5,3.5L66,54
	l8.2,4.4L70.1,59.7z"/>
</svg>
